# xmcd
# Track frame offsets:
# 150
# 15175
# 33592
#
# Disc length: 767 seconds
# Revision: 6
# Processed by: cddbd v1.5.2PL0 Copyright (c) Steve Scherf et al.
# Submitted via: VisiTrax 2.11.3.279 - For more info visit www.synapsa.com
#
DISCID=1502fd03
DTITLE=Baha Men - Who Let The Dogs Out
DYEAR=2000
DGENRE=Pop
TTITLE0=Who Let The Dogs Out (Radio Edit)
TTITLE1=Who Let The Dogs Out (Audio Cook Remix)
TTITLE2=Who Let The Dogs Out (Club Mix)
EXTD=YEAR: 2000
EXTT0=
EXTT1=
EXTT2=
PLAYORDER=
